<svg xmlns="http://www.w3.org/2000/svg" viewBox="0 0 24 24" fill="currentColor">
  <path d="M23.994 8.265c-.021-.247-.043-.493-.067-.739-.018-.181-.038-.362-.059-.543-.028-.238-.058-.475-.09-.712-.023-.173-.047-.345-.072-.517-.034-.236-.07-.471-.107-.706-.028-.168-.056-.336-.086-.503-.04-.232-.082-.463-.125-.693-.033-.166-.066-.332-.101-.497-.047-.226-.096-.452-.146-.677-.038-.163-.075-.326-.115-.488-.054-.221-.111-.441-.169-.661-.043-.16-.084-.321-.129-.48-.061-.218-.124-.435-.188-.652-.048-.158-.094-.317-.144-.474-.068-.214-.139-.427-.21-.64-.053-.155-.103-.311-.158-.465-.076-.209-.155-.417-.235-.624-.058-.15-.113-.301-.173-.45-.084-.205-.171-.408-.259-.611-.063-.145-.123-.291-.188-.435-.094-.201-.191-.401-.289-.6-.068-.139-.134-.279-.204-.417-.105-.197-.214-.392-.323-.586-.073-.13-.144-.261-.219-.39-.117-.199-.239-.395-.361-.591-.078-.125-.154-.251-.234-.375-.13-.199-.265-.395-.401-.591-.082-.119-.162-.24-.246-.357-.144-.199-.293-.394-.444-.589-.086-.111-.169-.224-.257-.334-.158-.197-.321-.39-.486-.582-.09-.105-.177-.212-.269-.315-.174-.194-.354-.383-.534-.572-.094-.098-.185-.199-.281-.295-.191-.19-.387-.375-.586-.558-.098-.09-.193-.184-.293-.272-.207-.186-.419-.366-.634-.544-.103-.085-.203-.174-.308-.257-.224-.179-.453-.352-.686-.523-.106-.078-.209-.161-.317-.237-.24-.172-.485-.338-.734-.5-.108-.07-.213-.145-.322-.213-.257-.16-.519-.313-.784-.464-.109-.061-.215-.127-.325-.186-.273-.148-.551-.287-.832-.425-.109-.053-.215-.111-.325-.162-.291-.138-.587-.267-.886-.395-.108-.046-.213-.097-.322-.141-.307-.124-.619-.238-.934-.35-.107-.038-.211-.08-.319-.116-.327-.109-.659-.207-.994-.304-.106-.03-.209-.066-.316-.094-.344-.094-.693-.178-1.045-.259-.103-.023-.203-.051-.307-.073-.363-.078-.73-.147-1.1-.209-.098-.017-.193-.039-.291-.054-.382-.061-.768-.112-1.156-.158-.089-.011-.176-.026-.265-.036-.405-.043-.814-.076-1.225-.103-.074-.005-.146-.013-.22-.017-.435-.025-.873-.039-1.315-.043-.033 0-.065-.004-.098-.004-.447 0-.891.014-1.332.038-.061.003-.121.009-.182.013-.416.025-.828.059-1.237.103-.083.009-.165.021-.248.031-.395.047-.787.103-1.174.169-.089.015-.176.034-.264.05-.388.07-.772.149-1.152.238-.08.018-.159.04-.239.059-.385.091-.765.191-1.14.301-.074.021-.147.045-.22.067-.382.113-.759.235-1.131.367-.067.024-.133.051-.2.075-.378.136-.75.281-1.115.435-.061.025-.12.053-.18.079-.371.158-.735.325-1.092.502-.053.027-.105.056-.158.083-.363.181-.718.372-1.066.572-.045.026-.089.053-.134.079-.354.205-.7.419-1.037.642-.036.024-.071.049-.107.073-.344.228-.678.466-1.004.714-.025.019-.049.039-.074.058-.334.254-.658.518-.973.791-.014.012-.027.025-.041.037-.322.279-.633.568-.934.866-.003.003-.006.006-.009.009-.307.303-.602.616-.886.938-.001.001-.002.002-.003.003-.29.328-.567.666-.831 1.012 0 .001-.001.001-.001.002-.27.353-.525.716-.767 1.089 0 .001 0 .001-.001.002-.247.38-.479.77-.696 1.169 0 .001 0 .001-.001.002-.223.409-.43.828-.619 1.256 0 .001 0 .001-.001.002-.196.44-.375.889-.537 1.347 0 .001 0 .001-.001.002-.17.476-.322.961-.456 1.455 0 .001 0 .001-.001.002-.141.517-.262 1.042-.363 1.576 0 .001 0 .001-.001.002-.107.561-.193 1.13-.256 1.708 0 .001 0 .001-.001.002-.07.614-.116 1.236-.136 1.865 0 .001 0 .001 0 .002-.01.261-.015.523-.015.786 0 .263.005.525.015.786 0 .001 0 .001 0 .002.02.629.066 1.251.136 1.865 0 .001 0 .001.001.002.063.578.149 1.147.256 1.708 0 .001 0 .001.001.002.101.534.222 1.059.363 1.576 0 .001 0 .001.001.002.134.494.286.979.456 1.455 0 .001 0 .001.001.002.162.458.341.907.537 1.347 0 .001 0 .001.001.002.189.428.396.847.619 1.256 0 .001 0 .001.001.002.217.399.449.789.696 1.169 0 .001 0 .001.001.002.242.373.497.736.767 1.089 0 .001 0 .001.001.002.254.322.531.66.831 1.012.001.001.002.002.003.003.284.322.579.635.886.938.003.003.006.006.009.009.301.298.612.587.934.866.014.012.027.025.041.037.315.273.639.537.973.791.025.019.049.039.074.058.326.248.66.486 1.004.714.036.024.071.049.107.073.317.223.683.437 1.037.642.045.026.089.053.134.079.348.2.703.391 1.066.572.053.027.105.056.158.083.357.177.721.344 1.092.502.06.026.119.054.18.079.365.154.737.299 1.115.435.067.024.133.051.2.075.372.132.749.254 1.131.367.073.022.146.046.22.067.375.11.755.21 1.14.301.08.019.159.041.239.059.38.089.764.168 1.152.238.088.016.175.035.264.05.387.066.779.122 1.174.169.083.01.165.022.248.031.409.044.821.078 1.237.103.061.004.121.01.182.013.441.024.885.038 1.332.038.033 0 .065-.004.098-.004.442-.004.88-.018 1.315-.043.074-.004.146-.012.22-.017.411-.027.82-.06 1.225-.103.089-.01.176-.025.265-.036.388-.046.774-.097 1.156-.158.098-.015.193-.037.291-.054.37-.062.737-.131 1.1-.209.104-.022.204-.05.307-.073.352-.081.701-.165 1.045-.259.107-.028.21-.064.316-.094.335-.097.667-.195.994-.304.108-.036.212-.078.319-.116.315-.112.627-.226.934-.35.109-.044.214-.095.322-.141.299-.128.595-.257.886-.395.11-.051.216-.109.325-.162.281-.138.559-.277.832-.425.11-.059.216-.125.325-.186.265-.151.527-.304.784-.464.109-.068.214-.143.322-.213.249-.162.494-.328.734-.5.108-.076.211-.159.317-.237.233-.171.462-.344.686-.523.105-.083.205-.172.308-.257.215-.178.427-.358.634-.544.1-.088.195-.182.293-.272.199-.183.395-.368.586-.558.096-.096.187-.197.281-.295.18-.189.36-.378.534-.572.092-.103.179-.21.269-.315.165-.192.328-.385.486-.582.088-.11.171-.223.257-.334.151-.195.3-.39.444-.589.084-.117.164-.238.246-.357.136-.196.271-.392.401-.591.08-.124.156-.25.234-.375.122-.196.244-.392.361-.591.075-.129.146-.26.219-.39.109-.194.218-.389.323-.586.07-.138.136-.278.204-.417.098-.199.195-.399.289-.6.065-.144.125-.29.188-.435.088-.203.175-.406.259-.611.06-.149.115-.3.173-.45.08-.207.159-.415.235-.624.055-.154.105-.31.158-.465.071-.213.142-.426.21-.64.05-.157.096-.316.144-.474.064-.217.127-.434.188-.652.045-.159.086-.32.129-.48.058-.22.115-.44.169-.661.04-.162.077-.325.115-.488.05-.225.099-.451.146-.677.035-.165.068-.331.101-.497.043-.23.085-.461.125-.693.03-.167.058-.335.086-.503.037-.235.073-.47.107-.706.025-.172.049-.344.072-.517.032-.237.062-.474.09-.712.021-.181.041-.362.059-.543.024-.246.046-.492.067-.739.015-.271.027-.543.036-.815.004-.133.01-.265.012-.398.003-.268.004-.537.004-.805 0-.268-.001-.537-.004-.805-.002-.133-.008-.265-.012-.398-.009-.272-.021-.544-.036-.815zm-11.994 11.735c-4.411 0-8-3.589-8-8s3.589-8 8-8 8 3.589 8 8-3.589 8-8 8z"/>
</svg>
